<svg xmlns="http://www.w3.org/2000/svg" style="display: none;">
  <symbol id="icon-logo" viewBox="0 0 526.3 93.43" stroke="none">
    <path fill-rule="evenodd" clip-rule="evenodd"
      d="M336.19-.01h76.02v20.94h-76.02V-.01zm0 72.43h76.02v20.94h-76.02V72.42zm165.52-12.63-15.19 19.56 10 14.05 29.69-.02-24.5-33.59zM496.54-.08h29.68l-71.04 93.47-30.2.01L495.52-.08h1.02zm-66.55.03 21.59 28.89 15.38-18.65-7.27-10.21-29.7-.03zM0 93.43 41.63 0h25.9l44.89 93.4H82.81L54.29 30.11l-12.52 30.5h13.99v20.27H33.44l-5.15 12.55H0zm225.75-45.68h44.75c3.18 0 6.36-.38 9.13-2.21 6.93-5.23 6.38-15.05 1.97-21.01-1.82-2.01-5.09-3.85-8.14-4.04l-10.58-.13h-37.44V-.08h51.22c6.43 0 13.68 1.51 19.39 4.85a30.63 30.63 0 0 1 7.08 5.65 28.67 28.67 0 0 1 7.7 17.71c.28 4.28.65 8.89-.16 13.22-.74 3.95-3.03 9.82-6.6 13.87-2.71 3.09-7.7 6.51-12.48 8.19-7.41 2.61-16 3.61-23.89 3.79-3.83.09-9.61.33-15.04.26l.03 25.88h-26.97V47.75h.03zM131.37-.08h25.82v72.12h46.33v21.35h-46.33v.01h-25.82V-.08zM336.22 36.2h76.02v20.94h-76.02V36.2z" />
  </symbol>
</svg>
