<svg xmlns="http://www.w3.org/2000/svg" style="display: none;">
  <symbol id="icon-bin" viewBox="0 0 48 48" stroke="none">
    <path
      d="M24 7.25a5.75 5.75 0 0 1 5.746 5.53l.004.22H37a1.25 1.25 0 0 1 .128 2.494L37 15.5h-1.091l-1.703 22.57A4.25 4.25 0 0 1 29.968 42H18.032a4.25 4.25 0 0 1-4.238-3.93L12.09 15.5H11a1.25 1.25 0 0 1-1.244-1.122l-.006-.128c0-.647.492-1.18 1.122-1.244L11 13h7.25A5.75 5.75 0 0 1 24 7.25Zm9.402 8.25H14.598l1.69 22.382a1.75 1.75 0 0 0 1.744 1.618h11.936a1.75 1.75 0 0 0 1.745-1.618l1.69-22.382Zm-6.152 5.25c.647 0 1.18.492 1.244 1.122L28.5 22v11a1.25 1.25 0 0 1-2.494.128L26 33V22c0-.69.56-1.25 1.25-1.25Zm-6.5 0c.647 0 1.18.492 1.244 1.122L22 22v11a1.25 1.25 0 0 1-2.494.128L19.5 33V22c0-.69.56-1.25 1.25-1.25Zm3.25-11a3.25 3.25 0 0 0-3.245 3.066L20.75 13h6.5A3.25 3.25 0 0 0 24 9.75Z" />
  </symbol>
  <symbol id="icon-cart" viewBox="0 0 512 512" stroke="none">
    <path
      d="M7.8 33.1A16 16 0 0 0 0 46c0 5 3.5 10.7 8 13 3.7 1.9 5.8 2 44.4 2H93l.5 2.2C94.8 68.5 147 304 147 304.5c0 .2-1.9 1.4-4.2 2.6a46.7 46.7 0 0 0-9.8 7.8 43.7 43.7 0 0 0-8.2 50.5 45.5 45.5 0 0 0 32.1 24.6c3 .5 11.7 1 19.5 1.1 10.9.1 13.1.3 9.7 1a45.3 45.3 0 0 0-35.3 50.5 45 45 0 0 0 50.8 37.6 45 45 0 0 0 37.6-37.6 45.3 45.3 0 0 0-35.3-50.5c-2.6-.5 37.5-.9 97.1-.9 59.6 0 99.7.4 97.1.9a45.3 45.3 0 0 0-35.3 50.5 45 45 0 0 0 37.6 37.6 45 45 0 0 0 50.8-37.6 45.3 45.3 0 0 0-35.3-50.5c-3.4-.7-1.1-.9 9.9-1 12.2-.1 14.9-.4 18.2-2.1 4.5-2.3 8-8 8-13s-3.5-10.7-8-13c-3.9-2-5.6-2-143-2s-139.1 0-143-2c-4.5-2.3-8-8-8-13 0-4.5 3.5-10.7 7.3-12.7 3-1.7 11.7-1.8 143.9-2.3 140.1-.5 140.7-.5 143.4-2.6 1.5-1.1 3.6-3.1 4.6-4.5 2-2.6 62.8-214.2 62.8-218.4a16 16 0 0 0-8-12.5c-3.9-2-5.5-2-188.8-2H130.3l-5.4-24.7c-3.9-17.9-6.1-25.7-7.9-28.4-4.4-6.9-4.1-6.9-57.8-6.9-45.5.1-47.9.2-51.4 2.1zm468.8 89.6-25.7 90-25.2 88.3H177l-.5-2.3L157 211a47041 47041 0 0 0-19.5-87.8l-.5-2.2h170c161.6 0 170.1.1 169.6 1.7zM202 423c4.5 2.3 8 8 8 13a16 16 0 0 1-15 15 16 16 0 0 1-15-15 16 16 0 0 1 7.8-12.9c4.8-2.6 9.3-2.6 14.2-.1zm212 0c4.5 2.3 8 8 8 13a16 16 0 0 1-15 15 16 16 0 0 1-15-15 16 16 0 0 1 7.8-12.9c4.8-2.6 9.3-2.6 14.2-.1z" />
  </symbol>
  <symbol id="icon-check" viewBox="0 -960 960 960" stroke="none">
    <path d="M382-240 154-468l57-57 171 171 367-367 57 57-424 424Z" />
  </symbol>
  <symbol id="icon-down" viewBox="0 -960 960 960" stroke="none">
    <path d="M480-344 240-584l56-56 184 184 184-184 56 56-240 240Z" />
  </symbol>
  <symbol id="icon-email" viewBox="0 -960 960 960" stroke="none">
    <path d="M160-160q-33 0-56-23t-24-57v-480q0-33 24-56t56-24h640q33 0 57 24t23 56v480q0 33-23 57t-57 23H160Zm320-280L160-640v400h640v-400L480-440Zm0-80 320-200H160l320 200ZM160-640v-80 480-400Z" />
  </symbol>
  <symbol id="icon-eye" viewBox="0 -960 960 960" stroke="none">
    <path
      d="M480-320q75 0 127.5-52.5T660-500q0-75-52.5-127.5T480-680q-75 0-127.5 52.5T300-500q0 75 52.5 127.5T480-320Zm0-72q-45 0-76.5-31.5T372-500q0-45 31.5-76.5T480-608q45 0 76.5 31.5T588-500q0 45-31.5 76.5T480-392Zm0 192q-146 0-266-81.5T40-500q54-137 174-218.5T480-800q146 0 266 81.5T920-500q-54 137-174 218.5T480-200Zm0-300Zm0 220q113 0 207.5-59.5T832-500q-50-101-144.5-160.5T480-720q-113 0-207.5 59.5T128-500q50 101 144.5 160.5T480-280Z" />
  </symbol>
  <symbol id="icon-grid" viewBox="0 -960 960 960" stroke="none">
    <path
      d="M240-160q-33 0-56.5-23.5T160-240q0-33 23.5-56.5T240-320q33 0 56.5 23.5T320-240q0 33-23.5 56.5T240-160Zm240 0q-33 0-56.5-23.5T400-240q0-33 23.5-56.5T480-320q33 0 56.5 23.5T560-240q0 33-23.5 56.5T480-160Zm240 0q-33 0-56.5-23.5T640-240q0-33 23.5-56.5T720-320q33 0 56.5 23.5T800-240q0 33-23.5 56.5T720-160ZM240-400q-33 0-56.5-23.5T160-480q0-33 23.5-56.5T240-560q33 0 56.5 23.5T320-480q0 33-23.5 56.5T240-400Zm240 0q-33 0-56.5-23.5T400-480q0-33 23.5-56.5T480-560q33 0 56.5 23.5T560-480q0 33-23.5 56.5T480-400Zm240 0q-33 0-56.5-23.5T640-480q0-33 23.5-56.5T720-560q33 0 56.5 23.5T800-480q0 33-23.5 56.5T720-400ZM240-640q-33 0-56.5-23.5T160-720q0-33 23.5-56.5T240-800q33 0 56.5 23.5T320-720q0 33-23.5 56.5T240-640Zm240 0q-33 0-56.5-23.5T400-720q0-33 23.5-56.5T480-800q33 0 56.5 23.5T560-720q0 33-23.5 56.5T480-640Zm240 0q-33 0-56.5-23.5T640-720q0-33 23.5-56.5T720-800q33 0 56.5 23.5T800-720q0 33-23.5 56.5T720-640Z" />
  </symbol>
  <symbol id="icon-home" viewBox="0 -960 960 960" stroke="none">
    <path d="M240-200h120v-240h240v240h120v-360L480-740 240-560v360Zm-80 80v-480l320-240 320 240v480H520v-240h-80v240H160Zm320-350Z" />
  </symbol>
  <symbol id="icon-list" viewBox="0 -960 960 960" stroke="none">
    <path d="M80-160v-160h160v160H80Zm240 0v-160h560v160H320ZM80-400v-160h160v160H80Zm240 0v-160h560v160H320ZM80-640v-160h160v160H80Zm240 0v-160h560v160H320Z" />
  </symbol>
  <symbol id="icon-logo" viewBox="0 0 526.3 93.43" stroke="none">
    <path fill-rule="evenodd" clip-rule="evenodd"
      d="M336.19-.01h76.02v20.94h-76.02V-.01zm0 72.43h76.02v20.94h-76.02V72.42zm165.52-12.63-15.19 19.56 10 14.05 29.69-.02-24.5-33.59zM496.54-.08h29.68l-71.04 93.47-30.2.01L495.52-.08h1.02zm-66.55.03 21.59 28.89 15.38-18.65-7.27-10.21-29.7-.03zM0 93.43 41.63 0h25.9l44.89 93.4H82.81L54.29 30.11l-12.52 30.5h13.99v20.27H33.44l-5.15 12.55H0zm225.75-45.68h44.75c3.18 0 6.36-.38 9.13-2.21 6.93-5.23 6.38-15.05 1.97-21.01-1.82-2.01-5.09-3.85-8.14-4.04l-10.58-.13h-37.44V-.08h51.22c6.43 0 13.68 1.51 19.39 4.85a30.63 30.63 0 0 1 7.08 5.65 28.67 28.67 0 0 1 7.7 17.71c.28 4.28.65 8.89-.16 13.22-.74 3.95-3.03 9.82-6.6 13.87-2.71 3.09-7.7 6.51-12.48 8.19-7.41 2.61-16 3.61-23.89 3.79-3.83.09-9.61.33-15.04.26l.03 25.88h-26.97V47.75h.03zM131.37-.08h25.82v72.12h46.33v21.35h-46.33v.01h-25.82V-.08zM336.22 36.2h76.02v20.94h-76.02V36.2z" />
  </symbol>
  <symbol id="icon-phone" viewBox="0 0 512 512" stroke="none">
    <path
      d="M492.56 400.56 392.23 300.24a30.75 30.75 0 0 0-43.43 0l-26.09 26.09a30.73 30.73 0 0 0-7.77 30.24l-9.85 9.84c-7 7-50.53-3.73-103.15-56.36-52.61-52.6-63.35-96.13-56.36-103.14l9.85-9.85a30.62 30.62 0 0 0 30.24-7.77l26.09-26.1a30.75 30.75 0 0 0 0-43.42L111.44 19.44c-5.8-5.8-13.52-9-21.72-9s-15.91 3.2-21.72 9l-26.09 26.1a30.73 30.73 0 0 0-7.77 30.23s-8.34 8.43-8.76 8.96c-27.75 30.85-32.96 79.42-14.56 137.49C28.84 279.06 67.68 339.3 120.2 391.8c52.5 52.5 112.74 91.35 169.6 109.37 22.83 7.23 44.2 10.82 63.6 10.82 31.82 0 58.34-9.65 77.35-28.66l5.48-5.47c2.74.78 5.6 1.2 8.53 1.2 8.2 0 15.92-3.19 21.72-8.98l26.09-26.1a30.75 30.75 0 0 0 0-43.43zM89.72 41.16l100.32 100.32-26.07 26.1-.01-.01-.38-.38-49.79-49.78-50.16-50.16 26.09-26.1zm319.3 420.46c-22.09 22.1-61.14 25.75-109.96 10.28-52.25-16.56-108.06-52.72-157.15-101.8C92.8 321 56.66 265.18 40.1 212.93c-15.48-48.82-11.83-87.87 10.27-109.97l2.77-2.77L131 178.05l-7.15 7.14-.01.02c-29.59 29.62 5.96 96.15 56.38 146.56 37.73 37.74 84.49 67.14 118.05 67.14 11.28 0 21.07-3.32 28.53-10.78l7.14-7.14 77.85 77.86-2.77 2.77zm35.73-13.25L344.43 348.04l26.09-26.08 100.32 100.32s-26.08 26.1-26.09 26.09zm-55.93-325.19A153.62 153.62 0 0 0 279.47 77.9a15.36 15.36 0 1 0 0 30.71c33.1 0 64.22 12.9 87.63 36.3a123.1 123.1 0 0 1 36.3 87.62 15.36 15.36 0 0 0 30.7 0c0-41.3-16.08-80.13-45.28-109.34z" />
    <path
      d="M443.9 68.1A231 231 0 0 0 279.46 0a15.36 15.36 0 0 0 0 30.71c53.9 0 104.59 21 142.7 59.11a200.5 200.5 0 0 1 59.12 142.7 15.36 15.36 0 0 0 30.7.01 231 231 0 0 0-68.1-164.42zM333.74 178.26a75.22 75.22 0 0 0-54.26-22.48 15.36 15.36 0 1 0 0 30.72c12.65 0 23.6 4.53 32.54 13.48a45.12 45.12 0 0 1 13.48 32.54 15.36 15.36 0 1 0 30.71 0 75.25 75.25 0 0 0-22.47-54.26z" />
  </symbol>
  <symbol id="icon-pin" viewBox="0 -960 960 960" stroke="none">
    <path
      d="M480-480q33 0 57-23t23-57q0-33-23-56t-57-24q-33 0-56 24t-24 56q0 33 24 57t56 23Zm0 294q122-112 181-203t59-163q0-109-69-178t-171-70q-101 0-170 70t-70 178q0 71 59 163t181 203Zm0 106Q319-217 240-334t-80-218q0-150 97-239t223-89q127 0 224 89t96 239q0 100-79 218T480-80Zm0-480Z" />
  </symbol>
  <symbol id="icon-prev-arrow" viewBox="0 -960 960 960" stroke="none">
    <path d="M400-80 0-480l400-400 71 71-329 329 329 329-71 71Z" />
  </symbol>
  <symbol id="icon-sad-cart" viewBox="0 0 320 258" stroke="none">
    <path
      d="M5.8 1.2C3.3 3.3 3 5.8 4.9 8.1c1.6 2 3.9 2.5 20.7 4.6a156 156 0 0 1 19.5 3c.4.5 5.7 29.8 11.9 65.3l16.2 93c2.7 15.6 5.4 29 6 29.7.7.9 5.6 1.3 16.1 1.5 12.7.3 15.2.5 15.5 1.8.2 1-1 2-3.1 2.8a25.6 25.6 0 0 0-14.2 12.6c-2.4 4.8-2.7 6.5-2.3 12.5a23.2 23.2 0 0 0 23.7 22.9c6.7.2 8.2-.1 12.6-2.5a24.9 24.9 0 0 0 12.5-26.9 26 26 0 0 0-15.8-18.5c-2.1-.7-3.2-1.8-3.2-3 0-1.8 1.8-1.9 67-1.9 59.6 0 67 .2 67 1.5 0 .9-1.9 2.4-4.3 3.4a25.5 25.5 0 0 0-14.6 31.5c1.5 5.3 10 13.8 15.5 15.4 21.8 6.4 40.5-15 30.4-34.8a30 30 0 0 0-13.4-12.1c-2.3-.8-3.6-1.9-3.6-3.1 0-1.6 1.2-1.8 13.3-1.8 11.7 0 13.6-.2 15-1.8 2.1-2.3 2.2-4.6.1-6.6-1.4-1.4-12.2-1.6-103.9-1.6H87.2l-1.1-6.8-1.7-8.5c-.5-1.6 5-1.7 106-1.7 95.4 0 106.6-.2 108-1.6.9-.8 1.6-1.7 1.6-2l9.5-65c5.2-35.5 9.5-65.6 9.5-66.9 0-1.3-.6-2.7-1.2-3.2-.7-.4-59.1-1-129.7-1.3l-128.4-.5-2.8-14.9a88 88 0 0 0-3.8-15.9C52.3 5.9 16.9.7 7.9 0c-.3 0-1.2.6-2.1 1.2zm302.7 49-8.5 57.3c-4.4 30.2-8.3 56.2-8.6 57.7l-.6 2.8H82l-.5-2.3-10-57.2-10.1-57.8-.6-2.7H309l-.5 2.2zM122.8 220.6c4.3 2.5 6.5 6.3 7 11.8.3 4.1-.1 5.8-2 8.6-6.1 9-18.5 9.1-24.5.1a14.8 14.8 0 0 1 4.2-20.1c3.7-2.4 11.6-2.7 15.3-.4zm144.9.4c4.7 2.8 6.6 7.2 6.1 13.7a13.9 13.9 0 0 1-20.7 11.5 13.5 13.5 0 0 1-7.8-11.4c-.6-5.3 1.2-9.3 5.7-13.2 4-3.3 11.8-3.6 16.7-.6z" />
    <path
      d="M155 85c-3 3-2.7 8.3.6 10.9 4.3 3.4 8.6 2.4 11.2-2.6 1.8-3.2 1.5-5.1-1.3-7.8-3-3.1-7.7-3.3-10.5-.5zm50 0c-3.3 3.3-3 7.5.6 10.7 3.4 3.1 6 2.9 9.6-.7 2.4-2.5 2.9-3.6 2.4-5.8-1.4-5.8-8.6-8.2-12.6-4.2zm-31.5 28c-12.5 5-23.2 20.4-16.5 24 2.7 1.4 4.4.3 7.9-5.2 10.3-16.2 32.6-15.5 41.1 1.3 1.1 2 2.7 3.9 3.6 4.3 2.1.8 6.4-1.9 6.4-4 0-4.8-9-15.3-16.5-19.2a36.4 36.4 0 0 0-26-1.2z" />
  </symbol>
  <symbol id="icon-search" viewBox="0 0 1000 1000" stroke="none">
    <path
      d="M800.2 703.7a23.6 23.6 0 0 1-2.7-28.6 429.7 429.7 0 0 0 69.8-234.9A434.2 434.2 0 0 0 433.7 6.5 434.1 434.1 0 0 0 0 440.2a434.1 434.1 0 0 0 433.7 433.6 431 431 0 0 0 250.1-80.1c8.3-6 20.8-5.2 28.1 2l155 155a357.1 357.1 0 0 1 19.7 18.6l18.4 18.3a18.7 18.7 0 0 0 26.3 0l63.2-63.2c7.3-7.3 7.3-19.1.1-26.4L800.2 703.7zM696 642.2a330.6 330.6 0 0 1-262.3 129.6C250.8 771.8 102 623 102 440.2s148.8-331.7 331.7-331.7a332 332 0 0 1 331.6 331.7c0 76-26.1 146-69.3 202z" />
  </symbol>
  <symbol id="icon-up" viewBox="0 0 490 490" stroke="none">
    <path d="m91 490 154-160 154 160 91-91-70-73 70-70L245 0 0 256l70 70-70 73 91 91zM43 255 245 44l202 211-48 49-154-161L91 304l-48-49zm202-68 202 211-48 48-154-161L91 446l-48-48 202-211z" />
  </symbol>
  <symbol id="icon-up-arrow" viewBox="0 -960 960 960" stroke="none">
    <path d="M480-528 296-344l-56-56 240-240 240 240-56 56-184-184Z" />
  </symbol>
</svg>
